<svg width="30" height="35" viewBox="0 0 30 35" fill="none" xmlns="http://www.w3.org/2000/svg">
<path d="M6.27798 3.83695C9.36455 0.76739 13.0559 0 14.6176 0C16.1792 0 20.0742 0.76739 23.1608 3.83695C23.8038 3.56288 25.2552 2.79549 25.9166 1.91848C25.1817 3.92831 22.2789 8.55092 16.5467 10.9627C16.41 10.6746 15.8328 10.0985 14.6176 10.0985C13.4023 10.0985 13.0287 10.6746 12.8921 10.9627C7.15986 8.55092 4.25701 3.92831 3.52211 1.91848C4.18352 2.79549 5.63494 3.56288 6.27798 3.83695Z" fill="white"/>
<path d="M8.06952 10.1838C8.93883 10.8357 10.8954 12.2158 11.7673 12.5219C10.1072 13.0391 7.04351 13.2956 8.06952 10.1838Z" fill="white"/>
<path d="M4.60729 6.50669C5.01338 7.10892 5.96234 8.41541 6.50949 8.82351C5.63312 10.8569 5.14994 14.9238 10.2282 14.9238L10.0999 16.6879L6.33828 18.8135C8.10775 19.3472 11.9588 21.7831 13.2072 27.2572L14.7052 32.4067L16.2303 27.2572C17.4787 21.7831 21.3297 19.3472 23.0992 18.8135L19.3376 16.6879L19.2093 14.9238C24.2876 14.9238 23.8044 10.8569 22.928 8.82351C23.4752 8.41541 24.4241 7.10892 24.8302 6.50669C26.4087 8.07652 26.5803 11.1709 26.4687 12.5219C26.4687 22.7204 28.3854 27.4847 29.3437 28.592L25.2836 25.507L22.5346 30.0216L19.3376 27.2572L14.7052 34.9375L10.0999 27.2572L6.90285 30.0216L4.15386 25.507L0.09375 28.592C1.0521 27.4847 2.96879 22.7204 2.96879 12.5219C2.85724 11.1709 3.02877 8.07652 4.60729 6.50669Z" fill="white"/>
<path d="M21.368 10.1838C20.4987 10.8357 18.5421 12.2158 17.6702 12.5219C19.3303 13.0391 22.394 13.2956 21.368 10.1838Z" fill="white"/>
<path d="M12.2452 15.4527C12.2452 13.4367 13.9685 12.4443 14.8328 12.2001C15.6971 12.4443 17.4256 13.4367 17.4256 15.4527V17.6505L19.3703 18.8519C17.8578 19.7896 14.838 22.5851 14.838 26.2656C14.838 22.5851 11.813 19.7896 10.3005 18.8519L12.2452 17.6505V15.4527Z" fill="white"/>
</svg>
