<svg width="32" height="30" viewBox="0 0 32 30" fill="none" xmlns="http://www.w3.org/2000/svg">
<path fill-rule="evenodd" clip-rule="evenodd" d="M28.6853 1.1359C29.0788 0.960227 29.5094 0.89964 29.9324 0.96044C30.3555 1.02124 30.7554 1.20121 31.0906 1.48161C31.4258 1.76201 31.684 2.1326 31.8384 2.55479C31.9927 2.97699 32.0376 3.43536 31.9683 3.8822L28.3574 27.1177C28.0071 29.359 25.6889 30.6443 23.7513 29.5279C22.1305 28.5939 19.7232 27.1549 17.5579 25.6533C16.4753 24.9017 13.1588 22.4949 13.5664 20.7823C13.9167 19.3179 19.4892 13.8152 22.6734 10.5436C23.9233 9.25828 23.3533 8.51681 21.8774 9.6991C18.2123 12.6346 12.3277 17.0986 10.3821 18.3552C8.66582 19.4632 7.77104 19.6524 6.70112 19.4632C4.74916 19.1186 2.93891 18.5849 1.4614 17.9346C-0.535136 17.0564 -0.438016 14.1445 1.45981 13.2967L28.6853 1.1359Z" fill="white"/>
</svg>
